M48
; DRILL file {KiCad (5.1.5)-3} date 25/04/2021 13:34:09
; FORMAT={-:-/ absolute / metric / decimal}
; #@! TF.CreationDate,2021-04-25T13:34:09+02:00
; #@! TF.GenerationSoftware,Kicad,Pcbnew,(5.1.5)-3
; #@! TF.FileFunction,Plated,1,2,PTH
FMAT,2
METRIC
T1C0.800
T2C1.000
T3C1.200
T4C1.300
%
G90
G05
T1
X114.17Y-90.12
X116.71Y-90.12
X119.25Y-90.12
X128.5Y-100.45
X108.8Y-94.25
X121.5Y-94.25
X111.63Y-82.5
X111.63Y-90.12
X114.17Y-82.5
X116.71Y-82.5
X119.25Y-82.5
X128.5Y-87.75
T2
X101.25Y-105.25
X108.75Y-105.25
X101.0Y-99.0
X108.5Y-99.0
X115.0Y-100.5
X122.5Y-100.5
T3
X102.0Y-73.04
X105.5Y-73.04
X114.25Y-73.0
X117.75Y-73.0
X102.29Y-85.75
X102.29Y-89.25
X102.29Y-92.75
X126.75Y-73.0
X130.25Y-73.0
T4
X142.403Y-73.89
X142.403Y-78.97
X142.403Y-84.05
X142.403Y-89.13
X142.403Y-94.21
X142.403Y-99.29
T0
M30
