G04 #@! TF.GenerationSoftware,KiCad,Pcbnew,(5.1.5)-3*
G04 #@! TF.CreationDate,2021-04-24T18:21:57+02:00*
G04 #@! TF.ProjectId,control-probador-motores-pap,636f6e74-726f-46c2-9d70-726f6261646f,1.0*
G04 #@! TF.SameCoordinates,Original*
G04 #@! TF.FileFunction,Other,ECO2*
%FSLAX46Y46*%
G04 Gerber Fmt 4.6, Leading zero omitted, Abs format (unit mm)*
G04 Created by KiCad (PCBNEW (5.1.5)-3) date 2021-04-24 18:21:57*
%MOMM*%
%LPD*%
G04 APERTURE LIST*
%ADD10C,0.150000*%
G04 APERTURE END LIST*
D10*
X103357142Y-98166666D02*
X103404761Y-98214285D01*
X103452380Y-98357142D01*
X103452380Y-98452380D01*
X103404761Y-98595238D01*
X103309523Y-98690476D01*
X103214285Y-98738095D01*
X103023809Y-98785714D01*
X102880952Y-98785714D01*
X102690476Y-98738095D01*
X102595238Y-98690476D01*
X102500000Y-98595238D01*
X102452380Y-98452380D01*
X102452380Y-98357142D01*
X102500000Y-98214285D01*
X102547619Y-98166666D01*
X103452380Y-97595238D02*
X103404761Y-97690476D01*
X103357142Y-97738095D01*
X103261904Y-97785714D01*
X102976190Y-97785714D01*
X102880952Y-97738095D01*
X102833333Y-97690476D01*
X102785714Y-97595238D01*
X102785714Y-97452380D01*
X102833333Y-97357142D01*
X102880952Y-97309523D01*
X102976190Y-97261904D01*
X103261904Y-97261904D01*
X103357142Y-97309523D01*
X103404761Y-97357142D01*
X103452380Y-97452380D01*
X103452380Y-97595238D01*
X102785714Y-96833333D02*
X103452380Y-96833333D01*
X102880952Y-96833333D02*
X102833333Y-96785714D01*
X102785714Y-96690476D01*
X102785714Y-96547619D01*
X102833333Y-96452380D01*
X102928571Y-96404761D01*
X103452380Y-96404761D01*
X102785714Y-96071428D02*
X102785714Y-95690476D01*
X102452380Y-95928571D02*
X103309523Y-95928571D01*
X103404761Y-95880952D01*
X103452380Y-95785714D01*
X103452380Y-95690476D01*
X103452380Y-95357142D02*
X102785714Y-95357142D01*
X102976190Y-95357142D02*
X102880952Y-95309523D01*
X102833333Y-95261904D01*
X102785714Y-95166666D01*
X102785714Y-95071428D01*
X103452380Y-94595238D02*
X103404761Y-94690476D01*
X103357142Y-94738095D01*
X103261904Y-94785714D01*
X102976190Y-94785714D01*
X102880952Y-94738095D01*
X102833333Y-94690476D01*
X102785714Y-94595238D01*
X102785714Y-94452380D01*
X102833333Y-94357142D01*
X102880952Y-94309523D01*
X102976190Y-94261904D01*
X103261904Y-94261904D01*
X103357142Y-94309523D01*
X103404761Y-94357142D01*
X103452380Y-94452380D01*
X103452380Y-94595238D01*
X103452380Y-93690476D02*
X103404761Y-93785714D01*
X103309523Y-93833333D01*
X102452380Y-93833333D01*
X102785714Y-92547619D02*
X103785714Y-92547619D01*
X102833333Y-92547619D02*
X102785714Y-92452380D01*
X102785714Y-92261904D01*
X102833333Y-92166666D01*
X102880952Y-92119047D01*
X102976190Y-92071428D01*
X103261904Y-92071428D01*
X103357142Y-92119047D01*
X103404761Y-92166666D01*
X103452380Y-92261904D01*
X103452380Y-92452380D01*
X103404761Y-92547619D01*
X103452380Y-91642857D02*
X102785714Y-91642857D01*
X102976190Y-91642857D02*
X102880952Y-91595238D01*
X102833333Y-91547619D01*
X102785714Y-91452380D01*
X102785714Y-91357142D01*
X103452380Y-90880952D02*
X103404761Y-90976190D01*
X103357142Y-91023809D01*
X103261904Y-91071428D01*
X102976190Y-91071428D01*
X102880952Y-91023809D01*
X102833333Y-90976190D01*
X102785714Y-90880952D01*
X102785714Y-90738095D01*
X102833333Y-90642857D01*
X102880952Y-90595238D01*
X102976190Y-90547619D01*
X103261904Y-90547619D01*
X103357142Y-90595238D01*
X103404761Y-90642857D01*
X103452380Y-90738095D01*
X103452380Y-90880952D01*
X103452380Y-90119047D02*
X102452380Y-90119047D01*
X102833333Y-90119047D02*
X102785714Y-90023809D01*
X102785714Y-89833333D01*
X102833333Y-89738095D01*
X102880952Y-89690476D01*
X102976190Y-89642857D01*
X103261904Y-89642857D01*
X103357142Y-89690476D01*
X103404761Y-89738095D01*
X103452380Y-89833333D01*
X103452380Y-90023809D01*
X103404761Y-90119047D01*
X103452380Y-88785714D02*
X102928571Y-88785714D01*
X102833333Y-88833333D01*
X102785714Y-88928571D01*
X102785714Y-89119047D01*
X102833333Y-89214285D01*
X103404761Y-88785714D02*
X103452380Y-88880952D01*
X103452380Y-89119047D01*
X103404761Y-89214285D01*
X103309523Y-89261904D01*
X103214285Y-89261904D01*
X103119047Y-89214285D01*
X103071428Y-89119047D01*
X103071428Y-88880952D01*
X103023809Y-88785714D01*
X103452380Y-87880952D02*
X102452380Y-87880952D01*
X103404761Y-87880952D02*
X103452380Y-87976190D01*
X103452380Y-88166666D01*
X103404761Y-88261904D01*
X103357142Y-88309523D01*
X103261904Y-88357142D01*
X102976190Y-88357142D01*
X102880952Y-88309523D01*
X102833333Y-88261904D01*
X102785714Y-88166666D01*
X102785714Y-87976190D01*
X102833333Y-87880952D01*
X103452380Y-87261904D02*
X103404761Y-87357142D01*
X103357142Y-87404761D01*
X103261904Y-87452380D01*
X102976190Y-87452380D01*
X102880952Y-87404761D01*
X102833333Y-87357142D01*
X102785714Y-87261904D01*
X102785714Y-87119047D01*
X102833333Y-87023809D01*
X102880952Y-86976190D01*
X102976190Y-86928571D01*
X103261904Y-86928571D01*
X103357142Y-86976190D01*
X103404761Y-87023809D01*
X103452380Y-87119047D01*
X103452380Y-87261904D01*
X103452380Y-86500000D02*
X102785714Y-86500000D01*
X102976190Y-86500000D02*
X102880952Y-86452380D01*
X102833333Y-86404761D01*
X102785714Y-86309523D01*
X102785714Y-86214285D01*
X103452380Y-85119047D02*
X102785714Y-85119047D01*
X102880952Y-85119047D02*
X102833333Y-85071428D01*
X102785714Y-84976190D01*
X102785714Y-84833333D01*
X102833333Y-84738095D01*
X102928571Y-84690476D01*
X103452380Y-84690476D01*
X102928571Y-84690476D02*
X102833333Y-84642857D01*
X102785714Y-84547619D01*
X102785714Y-84404761D01*
X102833333Y-84309523D01*
X102928571Y-84261904D01*
X103452380Y-84261904D01*
X103452380Y-83642857D02*
X103404761Y-83738095D01*
X103357142Y-83785714D01*
X103261904Y-83833333D01*
X102976190Y-83833333D01*
X102880952Y-83785714D01*
X102833333Y-83738095D01*
X102785714Y-83642857D01*
X102785714Y-83500000D01*
X102833333Y-83404761D01*
X102880952Y-83357142D01*
X102976190Y-83309523D01*
X103261904Y-83309523D01*
X103357142Y-83357142D01*
X103404761Y-83404761D01*
X103452380Y-83500000D01*
X103452380Y-83642857D01*
X102785714Y-83023809D02*
X102785714Y-82642857D01*
X102452380Y-82880952D02*
X103309523Y-82880952D01*
X103404761Y-82833333D01*
X103452380Y-82738095D01*
X103452380Y-82642857D01*
X103404761Y-81928571D02*
X103452380Y-82023809D01*
X103452380Y-82214285D01*
X103404761Y-82309523D01*
X103309523Y-82357142D01*
X102928571Y-82357142D01*
X102833333Y-82309523D01*
X102785714Y-82214285D01*
X102785714Y-82023809D01*
X102833333Y-81928571D01*
X102928571Y-81880952D01*
X103023809Y-81880952D01*
X103119047Y-82357142D01*
X103452380Y-81452380D02*
X102785714Y-81452380D01*
X102976190Y-81452380D02*
X102880952Y-81404761D01*
X102833333Y-81357142D01*
X102785714Y-81261904D01*
X102785714Y-81166666D01*
X103404761Y-80452380D02*
X103452380Y-80547619D01*
X103452380Y-80738095D01*
X103404761Y-80833333D01*
X103309523Y-80880952D01*
X102928571Y-80880952D01*
X102833333Y-80833333D01*
X102785714Y-80738095D01*
X102785714Y-80547619D01*
X102833333Y-80452380D01*
X102928571Y-80404761D01*
X103023809Y-80404761D01*
X103119047Y-80880952D01*
X103404761Y-80023809D02*
X103452380Y-79928571D01*
X103452380Y-79738095D01*
X103404761Y-79642857D01*
X103309523Y-79595238D01*
X103261904Y-79595238D01*
X103166666Y-79642857D01*
X103119047Y-79738095D01*
X103119047Y-79880952D01*
X103071428Y-79976190D01*
X102976190Y-80023809D01*
X102928571Y-80023809D01*
X102833333Y-79976190D01*
X102785714Y-79880952D01*
X102785714Y-79738095D01*
X102833333Y-79642857D01*
X102785714Y-78404761D02*
X103785714Y-78404761D01*
X102833333Y-78404761D02*
X102785714Y-78309523D01*
X102785714Y-78119047D01*
X102833333Y-78023809D01*
X102880952Y-77976190D01*
X102976190Y-77928571D01*
X103261904Y-77928571D01*
X103357142Y-77976190D01*
X103404761Y-78023809D01*
X103452380Y-78119047D01*
X103452380Y-78309523D01*
X103404761Y-78404761D01*
X103452380Y-77071428D02*
X102928571Y-77071428D01*
X102833333Y-77119047D01*
X102785714Y-77214285D01*
X102785714Y-77404761D01*
X102833333Y-77500000D01*
X103404761Y-77071428D02*
X103452380Y-77166666D01*
X103452380Y-77404761D01*
X103404761Y-77500000D01*
X103309523Y-77547619D01*
X103214285Y-77547619D01*
X103119047Y-77500000D01*
X103071428Y-77404761D01*
X103071428Y-77166666D01*
X103023809Y-77071428D01*
X102785714Y-76595238D02*
X103785714Y-76595238D01*
X102833333Y-76595238D02*
X102785714Y-76500000D01*
X102785714Y-76309523D01*
X102833333Y-76214285D01*
X102880952Y-76166666D01*
X102976190Y-76119047D01*
X103261904Y-76119047D01*
X103357142Y-76166666D01*
X103404761Y-76214285D01*
X103452380Y-76309523D01*
X103452380Y-76500000D01*
X103404761Y-76595238D01*
X102785714Y-75023809D02*
X103452380Y-74785714D01*
X102785714Y-74547619D01*
X103452380Y-73642857D02*
X103452380Y-74214285D01*
X103452380Y-73928571D02*
X102452380Y-73928571D01*
X102595238Y-74023809D01*
X102690476Y-74119047D01*
X102738095Y-74214285D01*
X103357142Y-73214285D02*
X103404761Y-73166666D01*
X103452380Y-73214285D01*
X103404761Y-73261904D01*
X103357142Y-73214285D01*
X103452380Y-73214285D01*
X102452380Y-72547619D02*
X102452380Y-72452380D01*
X102500000Y-72357142D01*
X102547619Y-72309523D01*
X102642857Y-72261904D01*
X102833333Y-72214285D01*
X103071428Y-72214285D01*
X103261904Y-72261904D01*
X103357142Y-72309523D01*
X103404761Y-72357142D01*
X103452380Y-72452380D01*
X103452380Y-72547619D01*
X103404761Y-72642857D01*
X103357142Y-72690476D01*
X103261904Y-72738095D01*
X103071428Y-72785714D01*
X102833333Y-72785714D01*
X102642857Y-72738095D01*
X102547619Y-72690476D01*
X102500000Y-72642857D01*
X102452380Y-72547619D01*
X150702380Y-97928571D02*
X149702380Y-97928571D01*
X150702380Y-97500000D02*
X150178571Y-97500000D01*
X150083333Y-97547619D01*
X150035714Y-97642857D01*
X150035714Y-97785714D01*
X150083333Y-97880952D01*
X150130952Y-97928571D01*
X150035714Y-97166666D02*
X150035714Y-96785714D01*
X149702380Y-97023809D02*
X150559523Y-97023809D01*
X150654761Y-96976190D01*
X150702380Y-96880952D01*
X150702380Y-96785714D01*
X150035714Y-96595238D02*
X150035714Y-96214285D01*
X149702380Y-96452380D02*
X150559523Y-96452380D01*
X150654761Y-96404761D01*
X150702380Y-96309523D01*
X150702380Y-96214285D01*
X150035714Y-95880952D02*
X151035714Y-95880952D01*
X150083333Y-95880952D02*
X150035714Y-95785714D01*
X150035714Y-95595238D01*
X150083333Y-95500000D01*
X150130952Y-95452380D01*
X150226190Y-95404761D01*
X150511904Y-95404761D01*
X150607142Y-95452380D01*
X150654761Y-95500000D01*
X150702380Y-95595238D01*
X150702380Y-95785714D01*
X150654761Y-95880952D01*
X150607142Y-94976190D02*
X150654761Y-94928571D01*
X150702380Y-94976190D01*
X150654761Y-95023809D01*
X150607142Y-94976190D01*
X150702380Y-94976190D01*
X150083333Y-94976190D02*
X150130952Y-94928571D01*
X150178571Y-94976190D01*
X150130952Y-95023809D01*
X150083333Y-94976190D01*
X150178571Y-94976190D01*
X149654761Y-93785714D02*
X150940476Y-94642857D01*
X149654761Y-92738095D02*
X150940476Y-93595238D01*
X150654761Y-92023809D02*
X150702380Y-92119047D01*
X150702380Y-92309523D01*
X150654761Y-92404761D01*
X150559523Y-92452380D01*
X150178571Y-92452380D01*
X150083333Y-92404761D01*
X150035714Y-92309523D01*
X150035714Y-92119047D01*
X150083333Y-92023809D01*
X150178571Y-91976190D01*
X150273809Y-91976190D01*
X150369047Y-92452380D01*
X150702380Y-91404761D02*
X150654761Y-91500000D01*
X150559523Y-91547619D01*
X149702380Y-91547619D01*
X150654761Y-90642857D02*
X150702380Y-90738095D01*
X150702380Y-90928571D01*
X150654761Y-91023809D01*
X150559523Y-91071428D01*
X150178571Y-91071428D01*
X150083333Y-91023809D01*
X150035714Y-90928571D01*
X150035714Y-90738095D01*
X150083333Y-90642857D01*
X150178571Y-90595238D01*
X150273809Y-90595238D01*
X150369047Y-91071428D01*
X150654761Y-89738095D02*
X150702380Y-89833333D01*
X150702380Y-90023809D01*
X150654761Y-90119047D01*
X150607142Y-90166666D01*
X150511904Y-90214285D01*
X150226190Y-90214285D01*
X150130952Y-90166666D01*
X150083333Y-90119047D01*
X150035714Y-90023809D01*
X150035714Y-89833333D01*
X150083333Y-89738095D01*
X150035714Y-89452380D02*
X150035714Y-89071428D01*
X149702380Y-89309523D02*
X150559523Y-89309523D01*
X150654761Y-89261904D01*
X150702380Y-89166666D01*
X150702380Y-89071428D01*
X150702380Y-88738095D02*
X150035714Y-88738095D01*
X150226190Y-88738095D02*
X150130952Y-88690476D01*
X150083333Y-88642857D01*
X150035714Y-88547619D01*
X150035714Y-88452380D01*
X150702380Y-87976190D02*
X150654761Y-88071428D01*
X150607142Y-88119047D01*
X150511904Y-88166666D01*
X150226190Y-88166666D01*
X150130952Y-88119047D01*
X150083333Y-88071428D01*
X150035714Y-87976190D01*
X150035714Y-87833333D01*
X150083333Y-87738095D01*
X150130952Y-87690476D01*
X150226190Y-87642857D01*
X150511904Y-87642857D01*
X150607142Y-87690476D01*
X150654761Y-87738095D01*
X150702380Y-87833333D01*
X150702380Y-87976190D01*
X150035714Y-87214285D02*
X150702380Y-87214285D01*
X150130952Y-87214285D02*
X150083333Y-87166666D01*
X150035714Y-87071428D01*
X150035714Y-86928571D01*
X150083333Y-86833333D01*
X150178571Y-86785714D01*
X150702380Y-86785714D01*
X150702380Y-86309523D02*
X150035714Y-86309523D01*
X149702380Y-86309523D02*
X149750000Y-86357142D01*
X149797619Y-86309523D01*
X149750000Y-86261904D01*
X149702380Y-86309523D01*
X149797619Y-86309523D01*
X150654761Y-85404761D02*
X150702380Y-85500000D01*
X150702380Y-85690476D01*
X150654761Y-85785714D01*
X150607142Y-85833333D01*
X150511904Y-85880952D01*
X150226190Y-85880952D01*
X150130952Y-85833333D01*
X150083333Y-85785714D01*
X150035714Y-85690476D01*
X150035714Y-85500000D01*
X150083333Y-85404761D01*
X150702380Y-84547619D02*
X150178571Y-84547619D01*
X150083333Y-84595238D01*
X150035714Y-84690476D01*
X150035714Y-84880952D01*
X150083333Y-84976190D01*
X150654761Y-84547619D02*
X150702380Y-84642857D01*
X150702380Y-84880952D01*
X150654761Y-84976190D01*
X150559523Y-85023809D01*
X150464285Y-85023809D01*
X150369047Y-84976190D01*
X150321428Y-84880952D01*
X150321428Y-84642857D01*
X150273809Y-84547619D01*
X150702380Y-84071428D02*
X150035714Y-84071428D01*
X150226190Y-84071428D02*
X150130952Y-84023809D01*
X150083333Y-83976190D01*
X150035714Y-83880952D01*
X150035714Y-83785714D01*
X150654761Y-83071428D02*
X150702380Y-83166666D01*
X150702380Y-83357142D01*
X150654761Y-83452380D01*
X150559523Y-83500000D01*
X150178571Y-83500000D01*
X150083333Y-83452380D01*
X150035714Y-83357142D01*
X150035714Y-83166666D01*
X150083333Y-83071428D01*
X150178571Y-83023809D01*
X150273809Y-83023809D01*
X150369047Y-83500000D01*
X150654761Y-82166666D02*
X150702380Y-82261904D01*
X150702380Y-82452380D01*
X150654761Y-82547619D01*
X150607142Y-82595238D01*
X150511904Y-82642857D01*
X150226190Y-82642857D01*
X150130952Y-82595238D01*
X150083333Y-82547619D01*
X150035714Y-82452380D01*
X150035714Y-82261904D01*
X150083333Y-82166666D01*
X150702380Y-81738095D02*
X150035714Y-81738095D01*
X149702380Y-81738095D02*
X149750000Y-81785714D01*
X149797619Y-81738095D01*
X149750000Y-81690476D01*
X149702380Y-81738095D01*
X149797619Y-81738095D01*
X150654761Y-80833333D02*
X150702380Y-80928571D01*
X150702380Y-81119047D01*
X150654761Y-81214285D01*
X150607142Y-81261904D01*
X150511904Y-81309523D01*
X150226190Y-81309523D01*
X150130952Y-81261904D01*
X150083333Y-81214285D01*
X150035714Y-81119047D01*
X150035714Y-80928571D01*
X150083333Y-80833333D01*
X150702380Y-80261904D02*
X150654761Y-80357142D01*
X150559523Y-80404761D01*
X149702380Y-80404761D01*
X150702380Y-79452380D02*
X150178571Y-79452380D01*
X150083333Y-79500000D01*
X150035714Y-79595238D01*
X150035714Y-79785714D01*
X150083333Y-79880952D01*
X150654761Y-79452380D02*
X150702380Y-79547619D01*
X150702380Y-79785714D01*
X150654761Y-79880952D01*
X150559523Y-79928571D01*
X150464285Y-79928571D01*
X150369047Y-79880952D01*
X150321428Y-79785714D01*
X150321428Y-79547619D01*
X150273809Y-79452380D01*
X150702380Y-78547619D02*
X149702380Y-78547619D01*
X150654761Y-78547619D02*
X150702380Y-78642857D01*
X150702380Y-78833333D01*
X150654761Y-78928571D01*
X150607142Y-78976190D01*
X150511904Y-79023809D01*
X150226190Y-79023809D01*
X150130952Y-78976190D01*
X150083333Y-78928571D01*
X150035714Y-78833333D01*
X150035714Y-78642857D01*
X150083333Y-78547619D01*
X150702380Y-77642857D02*
X150178571Y-77642857D01*
X150083333Y-77690476D01*
X150035714Y-77785714D01*
X150035714Y-77976190D01*
X150083333Y-78071428D01*
X150654761Y-77642857D02*
X150702380Y-77738095D01*
X150702380Y-77976190D01*
X150654761Y-78071428D01*
X150559523Y-78119047D01*
X150464285Y-78119047D01*
X150369047Y-78071428D01*
X150321428Y-77976190D01*
X150321428Y-77738095D01*
X150273809Y-77642857D01*
X150607142Y-77166666D02*
X150654761Y-77119047D01*
X150702380Y-77166666D01*
X150654761Y-77214285D01*
X150607142Y-77166666D01*
X150702380Y-77166666D01*
X150654761Y-76261904D02*
X150702380Y-76357142D01*
X150702380Y-76547619D01*
X150654761Y-76642857D01*
X150607142Y-76690476D01*
X150511904Y-76738095D01*
X150226190Y-76738095D01*
X150130952Y-76690476D01*
X150083333Y-76642857D01*
X150035714Y-76547619D01*
X150035714Y-76357142D01*
X150083333Y-76261904D01*
X150702380Y-75690476D02*
X150654761Y-75785714D01*
X150607142Y-75833333D01*
X150511904Y-75880952D01*
X150226190Y-75880952D01*
X150130952Y-75833333D01*
X150083333Y-75785714D01*
X150035714Y-75690476D01*
X150035714Y-75547619D01*
X150083333Y-75452380D01*
X150130952Y-75404761D01*
X150226190Y-75357142D01*
X150511904Y-75357142D01*
X150607142Y-75404761D01*
X150654761Y-75452380D01*
X150702380Y-75547619D01*
X150702380Y-75690476D01*
X150702380Y-74928571D02*
X150035714Y-74928571D01*
X150130952Y-74928571D02*
X150083333Y-74880952D01*
X150035714Y-74785714D01*
X150035714Y-74642857D01*
X150083333Y-74547619D01*
X150178571Y-74500000D01*
X150702380Y-74500000D01*
X150178571Y-74500000D02*
X150083333Y-74452380D01*
X150035714Y-74357142D01*
X150035714Y-74214285D01*
X150083333Y-74119047D01*
X150178571Y-74071428D01*
X150702380Y-74071428D01*
M02*
