M48
; DRILL file {KiCad (5.1.5)-3} date 24/04/2021 18:21:46
; FORMAT={-:-/ absolute / metric / decimal}
; #@! TF.CreationDate,2021-04-24T18:21:46+02:00
; #@! TF.GenerationSoftware,Kicad,Pcbnew,(5.1.5)-3
; #@! TF.FileFunction,Plated,1,2,PTH
FMAT,2
METRIC
T1C0.800
T2C1.000
T3C1.200
T4C1.300
%
G90
G05
T1
X124.513Y-89.35
X127.053Y-89.35
X129.593Y-89.35
X133.893Y-100.0
X117.393Y-81.63
X117.393Y-94.33
X121.973Y-81.73
X121.973Y-89.35
X124.513Y-81.73
X127.053Y-81.73
X129.593Y-81.73
X133.893Y-87.3
T2
X108.693Y-100.5
X116.193Y-100.5
X122.0Y-93.5
X122.0Y-101.0
X128.393Y-93.5
X128.393Y-101.0
T3
X109.693Y-83.66
X109.693Y-87.16
X109.693Y-90.66
X118.5Y-73.0
X122.0Y-73.0
X108.5Y-73.0
X112.0Y-73.0
X130.0Y-73.0
X133.5Y-73.0
T4
X142.403Y-73.89
X142.403Y-78.97
X142.403Y-84.05
X142.403Y-89.13
X142.403Y-94.21
X142.403Y-99.29
T0
M30
