G04 #@! TF.GenerationSoftware,KiCad,Pcbnew,(5.1.5)-3*
G04 #@! TF.CreationDate,2021-04-24T16:20:20+02:00*
G04 #@! TF.ProjectId,control-probador-motores-pap,636f6e74-726f-46c2-9d70-726f6261646f,1.0*
G04 #@! TF.SameCoordinates,Original*
G04 #@! TF.FileFunction,Other,User*
%FSLAX46Y46*%
G04 Gerber Fmt 4.6, Leading zero omitted, Abs format (unit mm)*
G04 Created by KiCad (PCBNEW (5.1.5)-3) date 2021-04-24 16:20:20*
%MOMM*%
%LPD*%
G04 APERTURE LIST*
%ADD10C,0.150000*%
G04 APERTURE END LIST*
D10*
X122874152Y-63381980D02*
X122397961Y-63381980D01*
X122350342Y-63858171D01*
X122397961Y-63810552D01*
X122493200Y-63762933D01*
X122731295Y-63762933D01*
X122826533Y-63810552D01*
X122874152Y-63858171D01*
X122921771Y-63953409D01*
X122921771Y-64191504D01*
X122874152Y-64286742D01*
X122826533Y-64334361D01*
X122731295Y-64381980D01*
X122493200Y-64381980D01*
X122397961Y-64334361D01*
X122350342Y-64286742D01*
X123540819Y-63381980D02*
X123636057Y-63381980D01*
X123731295Y-63429600D01*
X123778914Y-63477219D01*
X123826533Y-63572457D01*
X123874152Y-63762933D01*
X123874152Y-64001028D01*
X123826533Y-64191504D01*
X123778914Y-64286742D01*
X123731295Y-64334361D01*
X123636057Y-64381980D01*
X123540819Y-64381980D01*
X123445580Y-64334361D01*
X123397961Y-64286742D01*
X123350342Y-64191504D01*
X123302723Y-64001028D01*
X123302723Y-63762933D01*
X123350342Y-63572457D01*
X123397961Y-63477219D01*
X123445580Y-63429600D01*
X123540819Y-63381980D01*
X124350342Y-64334361D02*
X124350342Y-64381980D01*
X124302723Y-64477219D01*
X124255104Y-64524838D01*
X124969390Y-63381980D02*
X125064628Y-63381980D01*
X125159866Y-63429600D01*
X125207485Y-63477219D01*
X125255104Y-63572457D01*
X125302723Y-63762933D01*
X125302723Y-64001028D01*
X125255104Y-64191504D01*
X125207485Y-64286742D01*
X125159866Y-64334361D01*
X125064628Y-64381980D01*
X124969390Y-64381980D01*
X124874152Y-64334361D01*
X124826533Y-64286742D01*
X124778914Y-64191504D01*
X124731295Y-64001028D01*
X124731295Y-63762933D01*
X124778914Y-63572457D01*
X124826533Y-63477219D01*
X124874152Y-63429600D01*
X124969390Y-63381980D01*
X125921771Y-63381980D02*
X126017009Y-63381980D01*
X126112247Y-63429600D01*
X126159866Y-63477219D01*
X126207485Y-63572457D01*
X126255104Y-63762933D01*
X126255104Y-64001028D01*
X126207485Y-64191504D01*
X126159866Y-64286742D01*
X126112247Y-64334361D01*
X126017009Y-64381980D01*
X125921771Y-64381980D01*
X125826533Y-64334361D01*
X125778914Y-64286742D01*
X125731295Y-64191504D01*
X125683676Y-64001028D01*
X125683676Y-63762933D01*
X125731295Y-63572457D01*
X125778914Y-63477219D01*
X125826533Y-63429600D01*
X125921771Y-63381980D01*
X126874152Y-63381980D02*
X126969390Y-63381980D01*
X127064628Y-63429600D01*
X127112247Y-63477219D01*
X127159866Y-63572457D01*
X127207485Y-63762933D01*
X127207485Y-64001028D01*
X127159866Y-64191504D01*
X127112247Y-64286742D01*
X127064628Y-64334361D01*
X126969390Y-64381980D01*
X126874152Y-64381980D01*
X126778914Y-64334361D01*
X126731295Y-64286742D01*
X126683676Y-64191504D01*
X126636057Y-64001028D01*
X126636057Y-63762933D01*
X126683676Y-63572457D01*
X126731295Y-63477219D01*
X126778914Y-63429600D01*
X126874152Y-63381980D01*
X128397961Y-64381980D02*
X128397961Y-63715314D01*
X128397961Y-63810552D02*
X128445580Y-63762933D01*
X128540819Y-63715314D01*
X128683676Y-63715314D01*
X128778914Y-63762933D01*
X128826533Y-63858171D01*
X128826533Y-64381980D01*
X128826533Y-63858171D02*
X128874152Y-63762933D01*
X128969390Y-63715314D01*
X129112247Y-63715314D01*
X129207485Y-63762933D01*
X129255104Y-63858171D01*
X129255104Y-64381980D01*
X129731295Y-64381980D02*
X129731295Y-63715314D01*
X129731295Y-63810552D02*
X129778914Y-63762933D01*
X129874152Y-63715314D01*
X130017009Y-63715314D01*
X130112247Y-63762933D01*
X130159866Y-63858171D01*
X130159866Y-64381980D01*
X130159866Y-63858171D02*
X130207485Y-63762933D01*
X130302723Y-63715314D01*
X130445580Y-63715314D01*
X130540819Y-63762933D01*
X130588438Y-63858171D01*
X130588438Y-64381980D01*
X151493200Y-65229600D02*
X101493200Y-65229600D01*
X151493200Y-69229600D02*
X151493200Y-64643179D01*
X101493200Y-69229600D02*
X101493200Y-64643179D01*
X101493200Y-65229600D02*
X102619704Y-64643179D01*
X101493200Y-65229600D02*
X102619704Y-65816021D01*
X151493200Y-65229600D02*
X150366696Y-64643179D01*
X151493200Y-65229600D02*
X150366696Y-65816021D01*
X160340819Y-82539123D02*
X160340819Y-83158171D01*
X159959866Y-82824838D01*
X159959866Y-82967695D01*
X159912247Y-83062933D01*
X159864628Y-83110552D01*
X159769390Y-83158171D01*
X159531295Y-83158171D01*
X159436057Y-83110552D01*
X159388438Y-83062933D01*
X159340819Y-82967695D01*
X159340819Y-82681980D01*
X159388438Y-82586742D01*
X159436057Y-82539123D01*
X160340819Y-84062933D02*
X160340819Y-83586742D01*
X159864628Y-83539123D01*
X159912247Y-83586742D01*
X159959866Y-83681980D01*
X159959866Y-83920076D01*
X159912247Y-84015314D01*
X159864628Y-84062933D01*
X159769390Y-84110552D01*
X159531295Y-84110552D01*
X159436057Y-84062933D01*
X159388438Y-84015314D01*
X159340819Y-83920076D01*
X159340819Y-83681980D01*
X159388438Y-83586742D01*
X159436057Y-83539123D01*
X159388438Y-84586742D02*
X159340819Y-84586742D01*
X159245580Y-84539123D01*
X159197961Y-84491504D01*
X160340819Y-85205790D02*
X160340819Y-85301028D01*
X160293200Y-85396266D01*
X160245580Y-85443885D01*
X160150342Y-85491504D01*
X159959866Y-85539123D01*
X159721771Y-85539123D01*
X159531295Y-85491504D01*
X159436057Y-85443885D01*
X159388438Y-85396266D01*
X159340819Y-85301028D01*
X159340819Y-85205790D01*
X159388438Y-85110552D01*
X159436057Y-85062933D01*
X159531295Y-85015314D01*
X159721771Y-84967695D01*
X159959866Y-84967695D01*
X160150342Y-85015314D01*
X160245580Y-85062933D01*
X160293200Y-85110552D01*
X160340819Y-85205790D01*
X160340819Y-86158171D02*
X160340819Y-86253409D01*
X160293200Y-86348647D01*
X160245580Y-86396266D01*
X160150342Y-86443885D01*
X159959866Y-86491504D01*
X159721771Y-86491504D01*
X159531295Y-86443885D01*
X159436057Y-86396266D01*
X159388438Y-86348647D01*
X159340819Y-86253409D01*
X159340819Y-86158171D01*
X159388438Y-86062933D01*
X159436057Y-86015314D01*
X159531295Y-85967695D01*
X159721771Y-85920076D01*
X159959866Y-85920076D01*
X160150342Y-85967695D01*
X160245580Y-86015314D01*
X160293200Y-86062933D01*
X160340819Y-86158171D01*
X160340819Y-87110552D02*
X160340819Y-87205790D01*
X160293200Y-87301028D01*
X160245580Y-87348647D01*
X160150342Y-87396266D01*
X159959866Y-87443885D01*
X159721771Y-87443885D01*
X159531295Y-87396266D01*
X159436057Y-87348647D01*
X159388438Y-87301028D01*
X159340819Y-87205790D01*
X159340819Y-87110552D01*
X159388438Y-87015314D01*
X159436057Y-86967695D01*
X159531295Y-86920076D01*
X159721771Y-86872457D01*
X159959866Y-86872457D01*
X160150342Y-86920076D01*
X160245580Y-86967695D01*
X160293200Y-87015314D01*
X160340819Y-87110552D01*
X159340819Y-88634361D02*
X160007485Y-88634361D01*
X159912247Y-88634361D02*
X159959866Y-88681980D01*
X160007485Y-88777219D01*
X160007485Y-88920076D01*
X159959866Y-89015314D01*
X159864628Y-89062933D01*
X159340819Y-89062933D01*
X159864628Y-89062933D02*
X159959866Y-89110552D01*
X160007485Y-89205790D01*
X160007485Y-89348647D01*
X159959866Y-89443885D01*
X159864628Y-89491504D01*
X159340819Y-89491504D01*
X159340819Y-89967695D02*
X160007485Y-89967695D01*
X159912247Y-89967695D02*
X159959866Y-90015314D01*
X160007485Y-90110552D01*
X160007485Y-90253409D01*
X159959866Y-90348647D01*
X159864628Y-90396266D01*
X159340819Y-90396266D01*
X159864628Y-90396266D02*
X159959866Y-90443885D01*
X160007485Y-90539123D01*
X160007485Y-90681980D01*
X159959866Y-90777219D01*
X159864628Y-90824838D01*
X159340819Y-90824838D01*
X158493200Y-69229600D02*
X158493200Y-104229600D01*
X151493200Y-69229600D02*
X159079621Y-69229600D01*
X151493200Y-104229600D02*
X159079621Y-104229600D01*
X158493200Y-104229600D02*
X157906779Y-103103096D01*
X158493200Y-104229600D02*
X159079621Y-103103096D01*
X158493200Y-69229600D02*
X157906779Y-70356104D01*
X158493200Y-69229600D02*
X159079621Y-70356104D01*
M02*
